<?xml version="1.0" encoding="utf-8"?>
<!-- Generator: Adobe Illustrator 27.0.1, SVG Export Plug-In . SVG Version: 6.00 Build 0)  -->
<svg version="1.1" id="Layer_1" xmlns="http://www.w3.org/2000/svg" xmlns:xlink="http://www.w3.org/1999/xlink" x="0px" y="0px"
	 viewBox="0 0 425.2 425.2" style="enable-background:new 0 0 425.2 425.2;" xml:space="preserve">
<style type="text/css">
	.st0{clip-path:url(#SVGID_00000106141771340095222190000012837481867998554547_);}
	.st1{fill:#FFFFFF;stroke:#000000;stroke-width:1.07;stroke-miterlimit:10;}
	.st2{fill:#326989;stroke:#000000;stroke-width:1.07;stroke-miterlimit:10;}
	.st3{fill-opacity:0.5;}
	.st4{fill:none;stroke:#000000;stroke-width:0.53;stroke-linejoin:round;stroke-miterlimit:10;stroke-dasharray:4,4;}
	.st5{fill:none;stroke:#000000;stroke-width:0.53;stroke-linecap:round;stroke-linejoin:round;stroke-miterlimit:10;}
	.st6{fill:none;}
	.st7{enable-background:new    ;}
	.st8{font-family:'ArialMT';}
	.st9{font-size:10px;}
	.st10{letter-spacing:1;}
	.st11{fill:none;stroke:#333333;stroke-width:1.07;stroke-linejoin:round;stroke-miterlimit:10;}
	.st12{clip-path:url(#SVGID_00000065776483786852378270000010016161174673590688_);}
	.st13{clip-path:url(#SVGID_00000018935612216307467680000013670917828260055697_);}
	.st14{clip-path:url(#SVGID_00000000939309943872633030000001795221349342977945_);}
	.st15{clip-path:url(#SVGID_00000057832976982998853810000002106515210646547891_);}
	.st16{font-family:'SourceSansPro-Bold';}
	.st17{font-size:16px;}
	.st18{fill:none;stroke:#000000;stroke-width:0.25;stroke-miterlimit:10;}
	.st19{fill:#E43169;}
</style>
<g>
	<defs>
		<rect id="SVGID_1_" x="49" y="11.5" width="137" height="207.1"/>
	</defs>
	<clipPath id="SVGID_00000064333711090416745050000017191098861869074106_">
		<use xlink:href="#SVGID_1_"  style="overflow:visible;"/>
	</clipPath>
</g>
<g>
	<defs>
		<rect id="SVGID_00000093868438148153223420000008981071336807579041_" x="87.8" y="17" width="92.7" height="169.7"/>
	</defs>
	<clipPath id="SVGID_00000091715333032532905450000002506377615278434689_">
		<use xlink:href="#SVGID_00000093868438148153223420000008981071336807579041_"  style="overflow:visible;"/>
	</clipPath>
	<g style="clip-path:url(#SVGID_00000091715333032532905450000002506377615278434689_);">
		<rect x="100.5" y="93.6" class="st1" width="25.3" height="4.1"/>
		<rect x="142.6" y="97.8" class="st2" width="25.3" height="6.3"/>
		<circle class="st3" cx="111.9" cy="146.3" r="2.5"/>
		<circle class="st3" cx="156.4" cy="164" r="2.5"/>
		<circle class="st3" cx="111" cy="99.4" r="2.5"/>
		<circle class="st3" cx="155.9" cy="71.2" r="2.5"/>
		<circle class="st3" cx="154" cy="83.9" r="2.5"/>
		<circle class="st3" cx="111.7" cy="107.1" r="2.5"/>
		<circle class="st3" cx="154.1" cy="97.4" r="2.5"/>
		<circle class="st3" cx="114.7" cy="89.7" r="2.5"/>
		<circle class="st3" cx="156.8" cy="88.6" r="2.5"/>
		<circle class="st3" cx="156.2" cy="160.1" r="2.5"/>
		<circle class="st3" cx="113.6" cy="118" r="2.5"/>
		<circle class="st3" cx="113.2" cy="113.9" r="2.5"/>
		<circle class="st3" cx="156.2" cy="87" r="2.5"/>
		<circle class="st3" cx="153.5" cy="107.8" r="2.5"/>
		<circle class="st3" cx="112.5" cy="73.4" r="2.5"/>
		<circle class="st3" cx="112.5" cy="62.4" r="2.5"/>
		<circle class="st3" cx="156.3" cy="167" r="2.5"/>
		<circle class="st3" cx="155.1" cy="75.7" r="2.5"/>
		<circle class="st3" cx="112.9" cy="70.2" r="2.5"/>
		<circle class="st3" cx="154.8" cy="41.9" r="2.5"/>
		<circle class="st3" cx="111.6" cy="57.3" r="2.5"/>
		<line class="st4" x1="87.8" y1="97.8" x2="180.5" y2="97.8"/>
		<rect x="87.8" y="17" class="st5" width="92.7" height="169.7"/>
	</g>
</g>
<g>
	<g>
		<rect x="68.4" y="174" class="st6" width="16.3" height="11.8"/>
		<text transform="matrix(1 0 0 1 68.4405 182.6296)" class="st7"><tspan x="0" y="0" class="st8 st9">-4</tspan><tspan x="10.8" y="0" class="st8 st9">0</tspan></text>
		<rect x="68.4" y="153.7" class="st6" width="16.3" height="11.8"/>
		<text transform="matrix(1 0 0 1 68.4405 162.3293)" class="st7"><tspan x="0" y="0" class="st8 st9">-3</tspan><tspan x="10.8" y="0" class="st8 st9">0</tspan></text>
		<rect x="68.4" y="133.4" class="st6" width="16.3" height="11.8"/>
		<text transform="matrix(1 0 0 1 68.4405 142.0197)" class="st7"><tspan x="0" y="0" class="st8 st9">-2</tspan><tspan x="10.8" y="0" class="st8 st9">0</tspan></text>
		<rect x="68.4" y="113.1" class="st6" width="16.3" height="11.8"/>
		<text transform="matrix(1 0 0 1 68.4405 121.7194)" class="st7"><tspan x="0" y="0" class="st8 st9">-1</tspan><tspan x="10.8" y="0" class="st8 st9">0</tspan></text>
		<rect x="77.3" y="92.8" class="st6" width="6.4" height="11.8"/>
		<text transform="matrix(1 0 0 1 77.3321 101.4094)" class="st8 st9">0</text>
		<rect x="71.8" y="72.5" class="st6" width="12.7" height="11.8"/>
		<text transform="matrix(1 0 0 1 71.7706 81.1096)" class="st7"><tspan x="0" y="0" class="st8 st9 st10">1</tspan><tspan x="7.2" y="0" class="st8 st9">0</tspan></text>
		<rect x="71.8" y="52.2" class="st6" width="12.7" height="11.8"/>
		<text transform="matrix(1 0 0 1 71.7706 60.8098)" class="st7"><tspan x="0" y="0" class="st8 st9 st10">2</tspan><tspan x="7.2" y="0" class="st8 st9">0</tspan></text>
		<rect x="71.8" y="31.9" class="st6" width="12.7" height="11.8"/>
		<text transform="matrix(1 0 0 1 71.7706 40.4997)" class="st7"><tspan x="0" y="0" class="st8 st9 st10">3</tspan><tspan x="7.2" y="0" class="st8 st9">0</tspan></text>
		<line class="st11" x1="85.1" y1="179" x2="87.8" y2="179"/>
		<line class="st11" x1="85.1" y1="158.7" x2="87.8" y2="158.7"/>
		<line class="st11" x1="85.1" y1="138.4" x2="87.8" y2="138.4"/>
		<line class="st11" x1="85.1" y1="118.1" x2="87.8" y2="118.1"/>
		<line class="st11" x1="85.1" y1="97.8" x2="87.8" y2="97.8"/>
		<line class="st11" x1="85.1" y1="77.5" x2="87.8" y2="77.5"/>
		<line class="st11" x1="85.1" y1="57.2" x2="87.8" y2="57.2"/>
		<line class="st11" x1="85.1" y1="36.9" x2="87.8" y2="36.9"/>
		<line class="st11" x1="113.1" y1="189.4" x2="113.1" y2="186.7"/>
		<line class="st11" x1="155.2" y1="189.4" x2="155.2" y2="186.7"/>
		<text transform="matrix(1 0 0 1 103.6528 198.92)" class="st8 st9">PLA</text>
		<text transform="matrix(1 0 0 1 141.8861 198.92)" class="st8 st9">CLEN</text>
		<rect x="52.3" y="42.5" class="st6" width="13" height="118.7"/>
		<text transform="matrix(6.123234e-17 -1 1 6.123234e-17 60.8565 154.3498)" class="st8 st9">Ændring i LV masse (g)</text>
	</g>
</g>
<g>
	<defs>
		<rect id="SVGID_00000101810090100470880740000004575870769837936812_" x="186" y="11.5" width="140.2" height="207.1"/>
	</defs>
	<clipPath id="SVGID_00000085969446569048418010000018416929643245803448_">
		<use xlink:href="#SVGID_00000101810090100470880740000004575870769837936812_"  style="overflow:visible;"/>
	</clipPath>
</g>
<g>
	<defs>
		<rect id="SVGID_00000127009640038872857620000012645892159652402090_" x="228" y="17" width="92.7" height="169.7"/>
	</defs>
	<clipPath id="SVGID_00000006677154611724600160000012426195756726365368_">
		<use xlink:href="#SVGID_00000127009640038872857620000012645892159652402090_"  style="overflow:visible;"/>
	</clipPath>
	<g style="clip-path:url(#SVGID_00000006677154611724600160000012426195756726365368_);">
		<rect x="240.7" y="108.8" class="st1" width="25.3" height="18.3"/>
		<rect x="282.8" y="101.3" class="st2" width="25.3" height="7.5"/>
		<circle class="st3" cx="254.9" cy="154.6" r="2.5"/>
		<circle class="st3" cx="295.9" cy="117.5" r="2.5"/>
		<circle class="st3" cx="253" cy="133.9" r="2.5"/>
		<circle class="st3" cx="296.1" cy="86.3" r="2.5"/>
		<circle class="st3" cx="296.6" cy="55.7" r="2.5"/>
		<circle class="st3" cx="252.4" cy="114.7" r="2.5"/>
		<circle class="st3" cx="297.1" cy="136.4" r="2.5"/>
		<circle class="st3" cx="255.4" cy="120.7" r="2.5"/>
		<circle class="st3" cx="297" cy="85.6" r="2.5"/>
		<circle class="st3" cx="296.5" cy="109.8" r="2.5"/>
		<circle class="st3" cx="253.7" cy="168.3" r="2.5"/>
		<circle class="st3" cx="254.9" cy="108.8" r="2.5"/>
		<circle class="st3" cx="293.7" cy="103.5" r="2.5"/>
		<circle class="st3" cx="293.7" cy="114.1" r="2.5"/>
		<circle class="st3" cx="255.3" cy="120.2" r="2.5"/>
		<circle class="st3" cx="253.1" cy="121.8" r="2.5"/>
		<circle class="st3" cx="296.9" cy="62.7" r="2.5"/>
		<circle class="st3" cx="295.2" cy="104.9" r="2.5"/>
		<circle class="st3" cx="253.6" cy="120.8" r="2.5"/>
		<circle class="st3" cx="296" cy="138.1" r="2.5"/>
		<circle class="st3" cx="253.7" cy="107.4" r="2.5"/>
		<line class="st4" x1="228" y1="108.8" x2="320.7" y2="108.8"/>
		<rect x="228" y="17" class="st5" width="92.7" height="169.7"/>
	</g>
</g>
<g>
	<g>
		<rect x="208.6" y="174" class="st6" width="16.3" height="11.8"/>
		<text transform="matrix(1 0 0 1 208.6402 182.6296)" class="st7"><tspan x="0" y="0" class="st8 st9">-3</tspan><tspan x="10.8" y="0" class="st8 st9">0</tspan></text>
		<rect x="208.6" y="150.7" class="st6" width="16.3" height="11.8"/>
		<text transform="matrix(1 0 0 1 208.6402 159.2497)" class="st7"><tspan x="0" y="0" class="st8 st9">-2</tspan><tspan x="10.8" y="0" class="st8 st9">0</tspan></text>
		<rect x="208.6" y="127.3" class="st6" width="16.3" height="11.8"/>
		<text transform="matrix(1 0 0 1 208.6402 135.8693)" class="st7"><tspan x="0" y="0" class="st8 st9">-1</tspan><tspan x="10.8" y="0" class="st8 st9">0</tspan></text>
		<rect x="217.5" y="103.9" class="st6" width="6.4" height="11.8"/>
		<text transform="matrix(1 0 0 1 217.5318 112.4894)" class="st8 st9">0</text>
		<rect x="212" y="80.5" class="st6" width="12.7" height="11.8"/>
		<text transform="matrix(1 0 0 1 211.9703 89.1096)" class="st7"><tspan x="0" y="0" class="st8 st9 st10">1</tspan><tspan x="7.2" y="0" class="st8 st9">0</tspan></text>
		<rect x="212" y="57.1" class="st6" width="12.7" height="11.8"/>
		<text transform="matrix(1 0 0 1 211.9703 65.7297)" class="st7"><tspan x="0" y="0" class="st8 st9 st10">2</tspan><tspan x="7.2" y="0" class="st8 st9">0</tspan></text>
		<rect x="212" y="33.8" class="st6" width="12.7" height="11.8"/>
		<text transform="matrix(1 0 0 1 211.9703 42.3493)" class="st7"><tspan x="0" y="0" class="st8 st9 st10">3</tspan><tspan x="7.2" y="0" class="st8 st9">0</tspan></text>
		<line class="st11" x1="225.3" y1="179" x2="228" y2="179"/>
		<line class="st11" x1="225.3" y1="155.6" x2="228" y2="155.6"/>
		<line class="st11" x1="225.3" y1="132.2" x2="228" y2="132.2"/>
		<line class="st11" x1="225.3" y1="108.8" x2="228" y2="108.8"/>
		<line class="st11" x1="225.3" y1="85.5" x2="228" y2="85.5"/>
		<line class="st11" x1="225.3" y1="62.1" x2="228" y2="62.1"/>
		<line class="st11" x1="225.3" y1="38.7" x2="228" y2="38.7"/>
		<line class="st11" x1="253.3" y1="189.4" x2="253.3" y2="186.7"/>
		<line class="st11" x1="295.4" y1="189.4" x2="295.4" y2="186.7"/>
		<text transform="matrix(1 0 0 1 243.8528 198.92)" class="st8 st9">PLA</text>
		<text transform="matrix(1 0 0 1 282.0861 198.92)" class="st8 st9">CLEN</text>
		<rect x="195.8" y="59.3" class="st6" width="13" height="85"/>
		<text transform="matrix(6.123234e-17 -1 1 6.123234e-17 204.4092 142.9523)" class="st8 st9">Ændring i SV (mL)</text>
	</g>
</g>
<g>
	<defs>
		<rect id="SVGID_00000163035547679357363280000011955902673302457747_" x="5.5" y="212.6" width="137" height="207.1"/>
	</defs>
	<clipPath id="SVGID_00000181079230964795601040000006220878127176951696_">
		<use xlink:href="#SVGID_00000163035547679357363280000011955902673302457747_"  style="overflow:visible;"/>
	</clipPath>
</g>
<g>
	<defs>
		<rect id="SVGID_00000178202188098323275100000008993150021129690785_" x="44.3" y="218.1" width="92.7" height="169.7"/>
	</defs>
	<clipPath id="SVGID_00000027587621310342134130000002812458840239120550_">
		<use xlink:href="#SVGID_00000178202188098323275100000008993150021129690785_"  style="overflow:visible;"/>
	</clipPath>
	<g style="clip-path:url(#SVGID_00000027587621310342134130000002812458840239120550_);">
		<rect x="57" y="320.8" class="st1" width="25.3" height="10.9"/>
		<rect x="99.1" y="301" class="st2" width="25.3" height="19.8"/>
		<circle class="st3" cx="69.5" cy="379.4" r="2.5"/>
		<circle class="st3" cx="111.6" cy="309.5" r="2.5"/>
		<circle class="st3" cx="69.7" cy="309.8" r="2.5"/>
		<circle class="st3" cx="112.9" cy="316.1" r="2.5"/>
		<circle class="st3" cx="113.3" cy="290.9" r="2.5"/>
		<circle class="st3" cx="67.6" cy="375.2" r="2.5"/>
		<circle class="st3" cx="112.3" cy="260.2" r="2.5"/>
		<circle class="st3" cx="69.2" cy="331.7" r="2.5"/>
		<circle class="st3" cx="113.6" cy="304.6" r="2.5"/>
		<circle class="st3" cx="112.2" cy="348.9" r="2.5"/>
		<circle class="st3" cx="70.7" cy="342.1" r="2.5"/>
		<circle class="st3" cx="69.9" cy="306.1" r="2.5"/>
		<circle class="st3" cx="112.1" cy="323.5" r="2.5"/>
		<circle class="st3" cx="112.9" cy="309.8" r="2.5"/>
		<circle class="st3" cx="69.3" cy="293.9" r="2.5"/>
		<circle class="st3" cx="70.6" cy="324" r="2.5"/>
		<circle class="st3" cx="110.1" cy="303.3" r="2.5"/>
		<circle class="st3" cx="112.9" cy="300.8" r="2.5"/>
		<circle class="st3" cx="69.4" cy="317.9" r="2.5"/>
		<circle class="st3" cx="113.8" cy="243.4" r="2.5"/>
		<circle class="st3" cx="68.2" cy="336.4" r="2.5"/>
		<line class="st4" x1="44.3" y1="320.8" x2="137" y2="320.8"/>
		<rect x="44.3" y="218.1" class="st5" width="92.7" height="169.7"/>
	</g>
</g>
<g>
	<g>
		<rect x="25" y="375.2" class="st6" width="16.3" height="11.8"/>
		<text transform="matrix(1 0 0 1 24.957 383.7497)" class="st7"><tspan x="0" y="0" class="st8 st9">-1</tspan><tspan x="10.8" y="0" class="st8 st9">5</tspan></text>
		<rect x="25" y="355.4" class="st6" width="16.3" height="11.8"/>
		<text transform="matrix(1 0 0 1 24.957 363.9694)" class="st7"><tspan x="0" y="0" class="st8 st9">-1</tspan><tspan x="10.8" y="0" class="st8 st9">0</tspan></text>
		<rect x="30.5" y="335.6" class="st6" width="10" height="11.8"/>
		<text transform="matrix(1 0 0 1 30.5186 344.1794)" class="st7"><tspan x="0" y="0" class="st8 st9 st10">-</tspan><tspan x="4.4" y="0" class="st8 st9">5</tspan></text>
		<rect x="33.8" y="315.8" class="st6" width="6.4" height="11.8"/>
		<text transform="matrix(1 0 0 1 33.8486 324.3996)" class="st8 st9">0</text>
		<rect x="33.8" y="296" class="st6" width="6.4" height="11.8"/>
		<text transform="matrix(1 0 0 1 33.8486 304.6193)" class="st8 st9">5</text>
		<rect x="28.3" y="276.2" class="st6" width="12.7" height="11.8"/>
		<text transform="matrix(1 0 0 1 28.2871 284.8293)" class="st7"><tspan x="0" y="0" class="st8 st9 st10">1</tspan><tspan x="7.2" y="0" class="st8 st9">0</tspan></text>
		<rect x="28.3" y="256.5" class="st6" width="12.7" height="11.8"/>
		<text transform="matrix(1 0 0 1 28.2871 265.0495)" class="st7"><tspan x="0" y="0" class="st8 st9 st10">1</tspan><tspan x="7.2" y="0" class="st8 st9">5</tspan></text>
		<rect x="28.3" y="236.7" class="st6" width="12.7" height="11.8"/>
		<text transform="matrix(1 0 0 1 28.2871 245.2697)" class="st7"><tspan x="0" y="0" class="st8 st9 st10">2</tspan><tspan x="7.2" y="0" class="st8 st9">0</tspan></text>
		<line class="st11" x1="41.6" y1="380.1" x2="44.3" y2="380.1"/>
		<line class="st11" x1="41.6" y1="360.3" x2="44.3" y2="360.3"/>
		<line class="st11" x1="41.6" y1="340.5" x2="44.3" y2="340.5"/>
		<line class="st11" x1="41.6" y1="320.8" x2="44.3" y2="320.8"/>
		<line class="st11" x1="41.6" y1="301" x2="44.3" y2="301"/>
		<line class="st11" x1="41.6" y1="281.2" x2="44.3" y2="281.2"/>
		<line class="st11" x1="41.6" y1="261.4" x2="44.3" y2="261.4"/>
		<line class="st11" x1="41.6" y1="241.6" x2="44.3" y2="241.6"/>
		<line class="st11" x1="69.6" y1="390.6" x2="69.6" y2="387.8"/>
		<line class="st11" x1="111.7" y1="390.6" x2="111.7" y2="387.8"/>
		<text transform="matrix(1 0 0 1 60.1693 400.04)" class="st8 st9">PLA</text>
		<text transform="matrix(1 0 0 1 98.4026 400.04)" class="st8 st9">CLEN</text>
		<rect x="8.4" y="218.6" class="st6" width="13.5" height="168.7"/>
		<text transform="matrix(6.123234e-17 -1 1 6.123234e-17 17.0137 377.1437)" class="st8 st9">Ændring i pulsfrekvens (slag/min)</text>
	</g>
</g>
<g>
	<defs>
		<rect id="SVGID_00000022522366058321750720000012217687331304194453_" x="142.5" y="212.6" width="140.2" height="207.1"/>
	</defs>
	<clipPath id="SVGID_00000005268481704655076860000000536547184566794157_">
		<use xlink:href="#SVGID_00000022522366058321750720000012217687331304194453_"  style="overflow:visible;"/>
	</clipPath>
</g>
<g>
	<defs>
		<rect id="SVGID_00000007386774961262351290000005178173142216128955_" x="184.5" y="218.1" width="92.7" height="169.7"/>
	</defs>
	<clipPath id="SVGID_00000009589360842242494440000018243908766767977094_">
		<use xlink:href="#SVGID_00000007386774961262351290000005178173142216128955_"  style="overflow:visible;"/>
	</clipPath>
	<g style="clip-path:url(#SVGID_00000009589360842242494440000018243908766767977094_);">
		<rect x="197.2" y="310" class="st1" width="25.3" height="25.3"/>
		<rect x="239.3" y="291" class="st2" width="25.3" height="19"/>
		<circle class="st3" cx="209.1" cy="350" r="2.5"/>
		<circle class="st3" cx="251.9" cy="335.2" r="2.5"/>
		<circle class="st3" cx="211" cy="365.2" r="2.5"/>
		<circle class="st3" cx="251.2" cy="285.3" r="2.5"/>
		<circle class="st3" cx="249.9" cy="278" r="2.5"/>
		<circle class="st3" cx="210.6" cy="366.6" r="2.5"/>
		<circle class="st3" cx="250.4" cy="271.6" r="2.5"/>
		<circle class="st3" cx="209.3" cy="328.7" r="2.5"/>
		<circle class="st3" cx="253.8" cy="278.8" r="2.5"/>
		<circle class="st3" cx="252.2" cy="315" r="2.5"/>
		<circle class="st3" cx="208.6" cy="376.9" r="2.5"/>
		<circle class="st3" cx="208.2" cy="298.7" r="2.5"/>
		<circle class="st3" cx="251.2" cy="307.4" r="2.5"/>
		<circle class="st3" cx="251.8" cy="308.2" r="2.5"/>
		<circle class="st3" cx="209.1" cy="303.7" r="2.5"/>
		<circle class="st3" cx="211.1" cy="324.1" r="2.5"/>
		<circle class="st3" cx="252.4" cy="257.1" r="2.5"/>
		<circle class="st3" cx="250.3" cy="290.1" r="2.5"/>
		<circle class="st3" cx="210.1" cy="315" r="2.5"/>
		<circle class="st3" cx="250.7" cy="274.4" r="2.5"/>
		<circle class="st3" cx="209.9" cy="323.6" r="2.5"/>
		<line class="st4" x1="184.5" y1="310" x2="277.2" y2="310"/>
		<rect x="184.5" y="218.1" class="st5" width="92.7" height="169.7"/>
	</g>
</g>
<g>
	<g>
		<rect x="162.4" y="375.2" class="st6" width="19.5" height="11.8"/>
		<text transform="matrix(1 0 0 1 162.3784 383.7497)" class="st7"><tspan x="0" y="0" class="st8 st9">-2.</tspan><tspan x="14" y="0" class="st8 st9">0</tspan></text>
		<rect x="162.4" y="357.6" class="st6" width="19.5" height="11.8"/>
		<text transform="matrix(1 0 0 1 162.3784 366.2097)" class="st7"><tspan x="0" y="0" class="st8 st9">-1.</tspan><tspan x="14" y="0" class="st8 st9">5</tspan></text>
		<rect x="162.4" y="340.1" class="st6" width="19.5" height="11.8"/>
		<text transform="matrix(1 0 0 1 162.3784 348.6794)" class="st7"><tspan x="0" y="0" class="st8 st9">-1.</tspan><tspan x="14" y="0" class="st8 st9">0</tspan></text>
		<rect x="162.4" y="322.6" class="st6" width="19.5" height="11.8"/>
		<text transform="matrix(1 0 0 1 162.3784 331.1393)" class="st7"><tspan x="0" y="0" class="st8 st9">-0.</tspan><tspan x="14" y="0" class="st8 st9">5</tspan></text>
		<rect x="165.7" y="305" class="st6" width="15.9" height="11.8"/>
		<text transform="matrix(1 0 0 1 165.7085 313.6096)" class="st7"><tspan x="0" y="0" class="st8 st9 st10">0.</tspan><tspan x="10.3" y="0" class="st8 st9">0</tspan></text>
		<rect x="165.7" y="287.5" class="st6" width="15.9" height="11.8"/>
		<text transform="matrix(1 0 0 1 165.7085 296.0695)" class="st7"><tspan x="0" y="0" class="st8 st9 st10">0.</tspan><tspan x="10.3" y="0" class="st8 st9">5</tspan></text>
		<rect x="165.7" y="270" class="st6" width="15.9" height="11.8"/>
		<text transform="matrix(1 0 0 1 165.7085 278.5397)" class="st7"><tspan x="0" y="0" class="st8 st9 st10">1.</tspan><tspan x="10.3" y="0" class="st8 st9">0</tspan></text>
		<rect x="165.7" y="252.4" class="st6" width="15.9" height="11.8"/>
		<text transform="matrix(1 0 0 1 165.7085 260.9997)" class="st7"><tspan x="0" y="0" class="st8 st9 st10">1.</tspan><tspan x="10.3" y="0" class="st8 st9">5</tspan></text>
		<rect x="165.7" y="234.9" class="st6" width="15.9" height="11.8"/>
		<text transform="matrix(1 0 0 1 165.7085 243.4694)" class="st7"><tspan x="0" y="0" class="st8 st9 st10">2.</tspan><tspan x="10.3" y="0" class="st8 st9">0</tspan></text>
		<line class="st11" x1="181.8" y1="380.1" x2="184.5" y2="380.1"/>
		<line class="st11" x1="181.8" y1="362.6" x2="184.5" y2="362.6"/>
		<line class="st11" x1="181.8" y1="345" x2="184.5" y2="345"/>
		<line class="st11" x1="181.8" y1="327.5" x2="184.5" y2="327.5"/>
		<line class="st11" x1="181.8" y1="310" x2="184.5" y2="310"/>
		<line class="st11" x1="181.8" y1="292.4" x2="184.5" y2="292.4"/>
		<line class="st11" x1="181.8" y1="274.9" x2="184.5" y2="274.9"/>
		<line class="st11" x1="181.8" y1="257.4" x2="184.5" y2="257.4"/>
		<line class="st11" x1="181.8" y1="239.8" x2="184.5" y2="239.8"/>
		<line class="st11" x1="209.8" y1="390.6" x2="209.8" y2="387.8"/>
		<line class="st11" x1="251.9" y1="390.6" x2="251.9" y2="387.8"/>
		<text transform="matrix(1 0 0 1 200.3693 400.04)" class="st8 st9">PLA</text>
		<text transform="matrix(1 0 0 1 238.6026 400.04)" class="st8 st9">CLEN</text>
		<rect x="145.5" y="230.4" class="st6" width="13.5" height="145.1"/>
		<text transform="matrix(6.123234e-17 -1 1 6.123234e-17 154.0879 373.8098)" class="st8 st9">Ændring i minutvolumen (L/min)</text>
	</g>
</g>
<g>
	<defs>
		<rect id="SVGID_00000001663029160083881780000017426688096888878782_" x="282.7" y="212.6" width="137" height="207.1"/>
	</defs>
	<clipPath id="SVGID_00000123411485191770966000000010757011830791232143_">
		<use xlink:href="#SVGID_00000001663029160083881780000017426688096888878782_"  style="overflow:visible;"/>
	</clipPath>
</g>
<g>
	<defs>
		<rect id="SVGID_00000059298112940847972250000017102037406410758589_" x="321.6" y="218.1" width="92.7" height="169.7"/>
	</defs>
	<clipPath id="SVGID_00000176750087349503493460000012769062183658336430_">
		<use xlink:href="#SVGID_00000059298112940847972250000017102037406410758589_"  style="overflow:visible;"/>
	</clipPath>
	<g style="clip-path:url(#SVGID_00000176750087349503493460000012769062183658336430_);">
		<rect x="334.2" y="341.5" class="st1" width="25.3" height="5.5"/>
		<rect x="376.3" y="332.1" class="st2" width="25.3" height="9.4"/>
		<circle class="st3" cx="348.9" cy="353.2" r="2.5"/>
		<circle class="st3" cx="388.1" cy="322.5" r="2.5"/>
		<circle class="st3" cx="347.2" cy="355.5" r="2.5"/>
		<circle class="st3" cx="388.6" cy="350.6" r="2.5"/>
		<circle class="st3" cx="389.5" cy="361.2" r="2.5"/>
		<circle class="st3" cx="344.9" cy="372.7" r="2.5"/>
		<circle class="st3" cx="390.4" cy="354.8" r="2.5"/>
		<circle class="st3" cx="344.9" cy="311.8" r="2.5"/>
		<circle class="st3" cx="388" cy="310.1" r="2.5"/>
		<circle class="st3" cx="388" cy="357.2" r="2.5"/>
		<circle class="st3" cx="347.1" cy="362.1" r="2.5"/>
		<circle class="st3" cx="344.8" cy="322.5" r="2.5"/>
		<circle class="st3" cx="387.4" cy="323.9" r="2.5"/>
		<circle class="st3" cx="388.7" cy="261" r="2.5"/>
		<circle class="st3" cx="347.9" cy="354.1" r="2.5"/>
		<circle class="st3" cx="345.4" cy="327.6" r="2.5"/>
		<circle class="st3" cx="387.7" cy="346.7" r="2.5"/>
		<circle class="st3" cx="388" cy="320.1" r="2.5"/>
		<circle class="st3" cx="348.3" cy="364.9" r="2.5"/>
		<circle class="st3" cx="390.5" cy="344.9" r="2.5"/>
		<circle class="st3" cx="347.2" cy="345.8" r="2.5"/>
		<line class="st4" x1="321.6" y1="341.5" x2="414.2" y2="341.5"/>
		<rect x="321.6" y="218.1" class="st5" width="92.7" height="169.7"/>
	</g>
</g>
<g>
	<g>
		<rect x="302.2" y="375.2" class="st6" width="16.3" height="11.8"/>
		<text transform="matrix(1 0 0 1 302.1768 383.7497)" class="st7"><tspan x="0" y="0" class="st8 st9">-1</tspan><tspan x="10.8" y="0" class="st8 st9">0</tspan></text>
		<rect x="307.7" y="355.9" class="st6" width="10" height="11.8"/>
		<text transform="matrix(1 0 0 1 307.7383 364.4597)" class="st7"><tspan x="0" y="0" class="st8 st9 st10">-</tspan><tspan x="4.4" y="0" class="st8 st9">5</tspan></text>
		<rect x="311.1" y="336.6" class="st6" width="6.4" height="11.8"/>
		<text transform="matrix(1 0 0 1 311.0684 345.1696)" class="st8 st9">0</text>
		<rect x="311.1" y="317.3" class="st6" width="6.4" height="11.8"/>
		<text transform="matrix(1 0 0 1 311.0684 325.8796)" class="st8 st9">5</text>
		<rect x="305.5" y="298" class="st6" width="12.7" height="11.8"/>
		<text transform="matrix(1 0 0 1 305.5068 306.5895)" class="st7"><tspan x="0" y="0" class="st8 st9 st10">1</tspan><tspan x="7.2" y="0" class="st8 st9">0</tspan></text>
		<rect x="305.5" y="278.7" class="st6" width="12.7" height="11.8"/>
		<text transform="matrix(1 0 0 1 305.5068 287.3093)" class="st7"><tspan x="0" y="0" class="st8 st9 st10">1</tspan><tspan x="7.2" y="0" class="st8 st9">5</tspan></text>
		<rect x="305.5" y="259.4" class="st6" width="12.7" height="11.8"/>
		<text transform="matrix(1 0 0 1 305.5068 268.0197)" class="st7"><tspan x="0" y="0" class="st8 st9 st10">2</tspan><tspan x="7.2" y="0" class="st8 st9">0</tspan></text>
		<rect x="305.5" y="240.1" class="st6" width="12.7" height="11.8"/>
		<text transform="matrix(1 0 0 1 305.5068 248.7297)" class="st7"><tspan x="0" y="0" class="st8 st9 st10">2</tspan><tspan x="7.2" y="0" class="st8 st9">5</tspan></text>
		<line class="st11" x1="318.8" y1="380.1" x2="321.6" y2="380.1"/>
		<line class="st11" x1="318.8" y1="360.8" x2="321.6" y2="360.8"/>
		<line class="st11" x1="318.8" y1="341.5" x2="321.6" y2="341.5"/>
		<line class="st11" x1="318.8" y1="322.2" x2="321.6" y2="322.2"/>
		<line class="st11" x1="318.8" y1="303" x2="321.6" y2="303"/>
		<line class="st11" x1="318.8" y1="283.7" x2="321.6" y2="283.7"/>
		<line class="st11" x1="318.8" y1="264.4" x2="321.6" y2="264.4"/>
		<line class="st11" x1="318.8" y1="245.1" x2="321.6" y2="245.1"/>
		<line class="st11" x1="346.8" y1="390.6" x2="346.8" y2="387.8"/>
		<line class="st11" x1="389" y1="390.6" x2="389" y2="387.8"/>
		<text transform="matrix(1 0 0 1 337.3893 400.04)" class="st8 st9">PLA</text>
		<text transform="matrix(1 0 0 1 375.6226 400.04)" class="st8 st9">CLEN</text>
		<rect x="285.7" y="230.4" class="st6" width="13.5" height="145.1"/>
		<text transform="matrix(6.123234e-17 -1 1 6.123234e-17 294.2852 372.423)" class="st8 st9">Ændring i ejektionsfraktion (%.)</text>
	</g>
</g>
<text transform="matrix(1 0 0 1 54.5778 16.96)" class="st16 st17">a</text>
<text transform="matrix(1 0 0 1 204.3659 16.96)" class="st16 st17">b</text>
<text transform="matrix(1 0 0 1 24.5507 218.0802)" class="st16 st17">c</text>
<text transform="matrix(1 0 0 1 169.0796 218.0802)" class="st16 st17">d</text>
<text transform="matrix(1 0 0 1 306.9244 218.0802)" class="st16 st17">e</text>
<polyline class="st18" points="253.3,69.7 253.3,33 295.4,33 295.4,48.2 "/>
<text transform="matrix(1 0 0 1 270.1399 30.4172)" class="st16 st17">#</text>
<polyline class="st18" points="69.6,272.1 69.6,229.8 111.7,229.8 111.7,231.6 "/>
<text transform="matrix(1 0 0 1 86.4564 229.0948)" class="st16 st17">#</text>
<text transform="matrix(1 0 0 1 249.6468 89.2297)" class="st19 st16 st17">*</text>
<text transform="matrix(1 0 0 1 108.0836 244.5067)" class="st19 st16 st17">*</text>
<polyline class="st18" points="209.8,272.4 209.8,230.2 251.9,230.2 251.9,236.7 "/>
<text transform="matrix(1 0 0 1 226.6562 229.4514)" class="st16 st17">#</text>
<text transform="matrix(1 0 0 1 248.2834 253.3701)" class="st19 st16 st17">*</text>
</svg>
